<?xml version="1.0" encoding="UTF-8" ?>
<!DOCTYPE svg PUBLIC "-//W3C//DTD SVG 1.1//EN" "http://www.w3.org/Graphics/SVG/1.1/DTD/svg11.dtd">
<svg width="500pt" height="500pt" viewBox="0 0 500 500" version="1.1" xmlns="http://www.w3.org/2000/svg">
<g id="#4a766277">
<path fill="#4a7662" opacity="0.47" d=" M 263.15 157.41 C 268.97 160.40 274.09 164.54 279.76 167.78 C 279.79 168.01 279.86 168.47 279.89 168.70 C 279.76 168.97 279.49 169.50 279.36 169.77 C 276.59 167.93 274.06 165.78 271.35 163.88 C 268.31 162.14 264.22 161.27 263.15 157.41 Z" />
</g>
<g id="#019235ff">
<path fill="#019235" opacity="1.00" d=" M 259.96 155.03 C 260.39 155.09 261.26 155.22 261.70 155.28 C 270.86 157.38 280.11 159.16 289.15 161.77 C 303.16 165.70 317.40 169.18 330.68 175.28 C 340.49 179.40 350.65 184.12 357.67 192.40 C 361.50 196.87 364.26 202.34 365.11 208.20 C 367.55 225.35 366.62 242.72 366.82 259.98 C 366.67 287.47 367.12 314.97 366.59 342.46 C 348.73 343.09 330.86 342.57 313.00 342.77 C 309.63 342.72 306.20 343.05 302.88 342.32 C 301.30 341.52 301.60 339.55 301.45 338.10 C 301.48 298.75 301.69 259.40 301.24 220.05 C 301.31 212.33 301.18 204.57 299.88 196.95 C 297.65 185.75 290.53 175.97 281.03 169.76 C 280.74 169.50 280.18 168.97 279.89 168.70 C 279.86 168.47 279.79 168.01 279.76 167.78 C 274.09 164.54 268.97 160.40 263.15 157.41 C 262.02 156.71 260.98 155.86 259.96 155.03 Z" />
<path fill="#019235" opacity="1.00" d=" M 215.50 160.55 C 222.51 158.74 229.48 156.60 236.75 156.13 C 233.68 158.99 230.22 161.46 226.22 162.82 C 226.19 163.04 226.14 163.49 226.11 163.71 C 225.83 163.97 225.27 164.49 224.99 164.76 C 218.00 169.25 211.46 174.63 206.34 181.22 C 200.77 189.34 198.26 199.34 198.36 209.13 C 197.61 225.41 197.77 241.72 197.72 258.02 C 197.72 286.23 197.70 314.43 197.72 342.63 L 197.72 342.96 L 197.49 342.95 C 176.21 342.53 154.91 342.79 133.62 342.75 C 133.55 342.75 133.40 342.75 133.32 342.76 C 132.96 305.84 133.21 268.93 133.20 232.01 C 133.51 220.62 132.21 208.40 137.99 198.05 C 142.97 188.71 152.29 182.91 161.49 178.35 C 178.74 170.35 197.07 165.02 215.50 160.55 Z" />
<path fill="#019235" opacity="1.00" d=" M 343.84 165.14 C 345.68 165.23 347.55 165.28 349.38 165.59 C 367.52 169.26 385.52 173.75 403.02 179.76 C 413.34 183.92 423.81 188.43 432.11 196.03 C 437.74 201.20 441.08 208.42 442.76 215.78 C 445.62 229.32 444.63 243.21 444.79 256.94 C 444.75 285.59 444.88 314.24 444.73 342.89 C 444.63 342.89 444.43 342.88 444.34 342.87 C 431.62 342.25 418.86 343.35 406.17 342.29 C 405.99 311.20 406.13 280.11 406.09 249.02 C 406.29 237.36 405.72 225.69 404.91 214.05 C 404.33 203.65 399.39 193.38 390.85 187.22 C 376.63 177.08 359.73 171.96 343.84 165.14 Z" />
<path fill="#019235" opacity="1.00" d=" M 128.88 169.83 C 136.97 168.90 144.74 166.20 152.85 165.40 C 148.58 168.98 142.92 169.78 138.02 172.15 C 126.49 176.92 114.66 181.80 105.21 190.19 C 99.86 195.49 95.61 202.69 95.55 210.38 C 95.59 211.35 95.49 212.30 95.23 213.24 C 93.74 216.99 93.82 221.06 93.83 225.02 C 93.26 255.00 93.63 284.99 93.53 314.97 C 93.65 324.24 93.25 333.52 93.77 342.79 L 93.77 342.81 L 93.18 342.80 C 80.55 342.57 67.93 342.87 55.30 342.64 C 54.78 311.77 55.24 280.90 55.08 250.02 C 55.29 236.27 54.00 222.06 58.62 208.84 C 61.46 202.71 65.32 196.73 71.13 193.04 C 81.93 184.99 94.65 180.04 107.44 176.12 C 114.21 174.06 121.06 172.13 128.04 170.91 C 128.07 170.72 128.12 170.34 128.15 170.15 L 128.88 169.83 Z" />
</g>
</svg>
